<svg xmlns="http://www.w3.org/2000/svg" width="276.354" height="21.661" viewBox="0 0 276.354 21.661">
  <g id="footer_log_hotel_logo" transform="translate(-42.52 -401)">
    <g id="그룹_2" data-name="그룹 2" transform="translate(217.482 401)">
      <path id="패스_54" data-name="패스 54" d="M452.6,401a10.828,10.828,0,1,0,10.828,10.828A10.825,10.825,0,0,0,452.6,401Zm0,16.523a5.7,5.7,0,1,1,5.7-5.7A5.7,5.7,0,0,1,452.6,417.523Z" transform="translate(-400.581 -401)" fill="#fff"/>
      <path id="패스_55" data-name="패스 55" d="M381.807,409.726a.027.027,0,0,0,.005.016h-2.6v4.342h2.534a5.7,5.7,0,1,1-1.2-6.264l3.633-3.633a10.821,10.821,0,1,0,2.956,5.544h-5.333Z" transform="translate(-365.69 -401.005)" fill="#fff"/>
      <path id="패스_56" data-name="패스 56" d="M422.411,414.852a7.043,7.043,0,0,0,1.489-1.565,7.27,7.27,0,0,0,.969-1.933,7.316,7.316,0,0,0-.227-5.035,7.172,7.172,0,0,0-1.548-2.279,7.486,7.486,0,0,0-2.29-1.532,7.074,7.074,0,0,0-2.8-.568H409.32v20.638h5.089v-6.221h.655l5.327,6.221h6.28l-5.825-6.794a7.45,7.45,0,0,0,1.559-.926Zm-2.458-5.7a2.568,2.568,0,0,1-.211,1.039,2.7,2.7,0,0,1-.585.861,2.785,2.785,0,0,1-.861.585,2.586,2.586,0,0,1-1.039.211H414.42v-5.392h2.837a2.568,2.568,0,0,1,1.039.211,2.7,2.7,0,0,1,.861.585,2.784,2.784,0,0,1,.585.861A2.6,2.6,0,0,1,419.953,409.151Z" transform="translate(-385.699 -401.431)" fill="#fff"/>
      <path id="패스_57" data-name="패스 57" d="M497.453,414.582a4.017,4.017,0,0,1-.26,1.467,3.878,3.878,0,0,1-.715,1.191,3.14,3.14,0,0,1-1.077.8,3.393,3.393,0,0,1-1.4.287,3.548,3.548,0,0,1-1.429-.287,3.2,3.2,0,0,1-1.094-.8,3.6,3.6,0,0,1-.709-1.186,4.288,4.288,0,0,1-.249-1.473V401.94H485.38v12.528a9.268,9.268,0,0,0,.688,3.66,7.971,7.971,0,0,0,1.862,2.7,8.064,8.064,0,0,0,2.745,1.678,9.571,9.571,0,0,0,3.33.585,9.178,9.178,0,0,0,3.346-.612,8.3,8.3,0,0,0,2.729-1.738,8.131,8.131,0,0,0,1.846-2.729,9.03,9.03,0,0,0,.671-3.541V401.945h-5.143v12.642Z" transform="translate(-420.581 -401.431)" fill="#fff"/>
      <path id="패스_58" data-name="패스 58" d="M538.155,406.481a7.7,7.7,0,0,0-1.608-2.36,7.494,7.494,0,0,0-2.366-1.592,7.273,7.273,0,0,0-2.875-.579H521.94v20.638h5.089V416.86h4.277a7.154,7.154,0,0,0,2.9-.6,7.7,7.7,0,0,0,2.361-1.608,7.445,7.445,0,0,0,1.592-2.382,7.365,7.365,0,0,0,.579-2.886,7.274,7.274,0,0,0-.6-2.907Zm-11.126-.022h3.5a2.869,2.869,0,0,1,1.142.227,2.974,2.974,0,0,1,.931.628,2.963,2.963,0,0,1,.623,3.216,3.052,3.052,0,0,1-.623.931,3.171,3.171,0,0,1-.937.644,2.779,2.779,0,0,1-1.137.238h-3.5v-5.88Z" transform="translate(-437.347 -401.436)" fill="#fff"/>
    </g>
    <g id="그룹_3" data-name="그룹 3" transform="translate(42.52 401)">
      <path id="패스_59" data-name="패스 59" d="M137.747,409.726a.027.027,0,0,0,.005.016h-2.6v4.342h2.534a5.7,5.7,0,1,1-1.2-6.264l3.633-3.633a10.821,10.821,0,1,0,2.956,5.544h-5.333Z" transform="translate(-78.8 -401.005)" fill="#fff"/>
      <path id="패스_60" data-name="패스 60" d="M55.405,422.578h5.17v-5.17h-12.9V401.94H42.52v7.726a12.9,12.9,0,0,0,12.885,12.907Z" transform="translate(-42.52 -401.431)" fill="#fff"/>
      <path id="패스_61" data-name="패스 61" d="M89.348,401a10.828,10.828,0,1,0,10.828,10.828A10.825,10.825,0,0,0,89.348,401Zm0,16.523a5.7,5.7,0,1,1,5.7-5.7,5.7,5.7,0,0,1-5.7,5.7Z" transform="translate(-59.03 -401)" fill="#fff"/>
    </g>
    <g id="그룹_4" data-name="그룹 4" transform="translate(117.324 401)">
      <path id="패스_62" data-name="패스 62" d="M227.058,401a10.828,10.828,0,1,0,10.828,10.828A10.825,10.825,0,0,0,227.058,401Zm0,16.523a5.7,5.7,0,1,1,5.7-5.7A5.7,5.7,0,0,1,227.058,417.523Z" transform="translate(-196.989 -401)" fill="#fff"/>
      <path id="패스_63" data-name="패스 63" d="M192.639,410h-6.859V401.94H180.69v20.638h5.089v-8.061h6.859v8.061h5.089V401.94h-5.089Z" transform="translate(-180.69 -401.431)" fill="#fff"/>
      <path id="패스_64" data-name="패스 64" d="M258.79,406.53h6.161v16.128h5.089V406.53H276.2v-4.51H258.79Z" transform="translate(-216.507 -401.468)" fill="#fff"/>
      <path id="패스_65" data-name="패스 65" d="M309.553,406.455V401.94H295.71v20.638h13.843v-4.515h-8.662v-3.546h7.742V410h-7.742v-3.546Z" transform="translate(-233.439 -401.431)" fill="#fff"/>
      <path id="패스_66" data-name="패스 66" d="M331.179,417.5V402.02H326.09v20.638h13.286v-5.122Z" transform="translate(-247.371 -401.468)" fill="#fff"/>
    </g>
  </g>
</svg>
