<svg xmlns="http://www.w3.org/2000/svg" width="118.013" height="39.641" viewBox="0 0 118.013 39.641">
  <g id="log_hotel_logo" transform="translate(-42.52 -374.463)">
    <g id="그룹_3" data-name="그룹 3" transform="translate(42.52 374.463)">
      <path id="패스_59" data-name="패스 59" d="M151.126,416.962a.049.049,0,0,0,.01.03H146.38v7.946h4.637a10.436,10.436,0,1,1-2.19-11.463l6.648-6.648a19.8,19.8,0,1,0,5.41,10.146h-9.759Z" transform="translate(-43.249 -401)"/>
      <path id="패스_60" data-name="패스 60" d="M66.1,439.709h9.462v-9.462h-23.6V401.94H42.52v14.139A23.6,23.6,0,0,0,66.1,439.7Z" transform="translate(-42.52 -401.009)"/>
      <path id="패스_61" data-name="패스 61" d="M98.336,401a19.816,19.816,0,1,0,19.816,19.816A19.81,19.81,0,0,0,98.336,401Zm0,30.239a10.423,10.423,0,1,1,10.423-10.423,10.423,10.423,0,0,1-10.423,10.423Z" transform="translate(-42.852 -401)"/>
    </g>
  </g>
</svg>
