<svg xmlns="http://www.w3.org/2000/svg" width="68.554" height="19" viewBox="0 0 68.554 19">
  <g id="laguage_EN" transform="translate(-161.167 -745)">
    <text id="EN" transform="translate(185 760)" font-size="16" font-family="TTNormsPro-Medium, TT Norms Pro" font-weight="500"><tspan x="0" y="0">EN</tspan></text>
    <path id="languge_icon1" d="M10,17.917a7.708,7.708,0,0,1-3.09-.624,8.044,8.044,0,0,1-2.518-1.7,7.905,7.905,0,0,1-2.308-5.62A7.745,7.745,0,0,1,2.7,6.89,7.846,7.846,0,0,1,6.91,2.7,7.829,7.829,0,0,1,10,2.083a7.891,7.891,0,0,1,5.608,2.3A7.915,7.915,0,0,1,17.3,6.89a7.745,7.745,0,0,1,.617,3.088,7.905,7.905,0,0,1-2.308,5.62,8.051,8.051,0,0,1-2.516,1.7A7.7,7.7,0,0,1,10,17.917Zm0-1.025a8.813,8.813,0,0,0,1.21-1.781A10.189,10.189,0,0,0,12,12.951H8.013A10.627,10.627,0,0,0,8.8,15.118,8.3,8.3,0,0,0,10,16.891ZM8.581,16.7A8.77,8.77,0,0,1,7.6,15a10.9,10.9,0,0,1-.67-2.051H3.779a6.957,6.957,0,0,0,1.93,2.428A7.388,7.388,0,0,0,8.581,16.7Zm2.852-.009a6.935,6.935,0,0,0,2.809-1.319,7.04,7.04,0,0,0,1.979-2.424H13.076A14.188,14.188,0,0,1,12.364,15,9.991,9.991,0,0,1,11.433,16.693ZM3.4,11.9H6.733q-.079-.535-.105-1T6.6,9.977q0-.488.031-.937t.11-.953H3.4a5.969,5.969,0,0,0-.207.918,6.978,6.978,0,0,0-.064.972,7.3,7.3,0,0,0,.064.99A6.051,6.051,0,0,0,3.4,11.9Zm4.4,0h4.414q.087-.575.118-1.016t.031-.911q0-.456-.031-.885t-.118-1H7.8q-.087.575-.118,1t-.031.885q0,.47.031.911T7.8,11.9Zm5.462,0H16.6a6.057,6.057,0,0,0,.207-.936,7.307,7.307,0,0,0,.064-.99,6.982,6.982,0,0,0-.064-.972,5.976,5.976,0,0,0-.207-.918H13.272q.073.614.1,1.052t.031.838q0,.462-.035.911T13.259,11.9Zm-.191-4.863h3.154a6.739,6.739,0,0,0-1.945-2.466A6.671,6.671,0,0,0,11.419,3.29,9.536,9.536,0,0,1,12.384,5,12.115,12.115,0,0,1,13.067,7.041Zm-5.054,0h4a9.725,9.725,0,0,0-.792-2.121A8.86,8.86,0,0,0,10,3.126,6.544,6.544,0,0,0,8.853,4.751,12.232,12.232,0,0,0,8.013,7.041Zm-4.235,0H6.941A11.5,11.5,0,0,1,7.6,5.031,10,10,0,0,1,8.567,3.3a6.66,6.66,0,0,0-2.843,1.28A6.878,6.878,0,0,0,3.779,7.041Z" transform="translate(159.083 744.5)"/>
    <path id="languge_icon2" d="M6.5,7.918.14,1.558,1.325.372,6.5,5.53,11.675.372l1.186,1.185Z" transform="translate(216.86 751.355)"/>
  </g>
</svg>
