<svg width="20" height="20" viewBox="0 0 20 20" fill="none" xmlns="http://www.w3.org/2000/svg">
<path d="M9.99992 17.9167C8.90312 17.9167 7.87312 17.7086 6.90992 17.2925C5.94673 16.8764 5.10728 16.3113 4.39159 15.5973C3.67575 14.8832 3.11207 14.0432 2.70054 13.0771C2.28902 12.1111 2.08325 11.0779 2.08325 9.97748C2.08325 8.87776 2.28902 7.84852 2.70054 6.88977C3.11207 5.93088 3.67575 5.09443 4.39159 4.3804C5.10728 3.66637 5.94673 3.10498 6.90992 2.69623C7.87312 2.28762 8.90312 2.08331 9.99992 2.08331C11.0996 2.08331 12.1303 2.28762 13.092 2.69623C14.0538 3.10498 14.8926 3.66637 15.6083 4.3804C16.3241 5.09443 16.8878 5.93088 17.2993 6.88977C17.7108 7.84852 17.9166 8.87776 17.9166 9.97748C17.9166 11.0779 17.7108 12.1111 17.2993 13.0771C16.8878 14.0432 16.3241 14.8832 15.6083 15.5973C14.8926 16.3113 14.0538 16.8764 13.092 17.2925C12.1303 17.7086 11.0996 17.9167 9.99992 17.9167ZM9.99992 16.8914C10.4871 16.331 10.8906 15.7372 11.2103 15.11C11.5302 14.4829 11.7918 13.7632 11.9951 12.9508H8.01326C8.21798 13.7618 8.47937 14.4842 8.79742 15.1181C9.11548 15.752 9.51631 16.3431 9.99992 16.8914ZM8.58055 16.7019C8.21416 16.2116 7.88832 15.6449 7.60305 15.0019C7.31777 14.3588 7.0943 13.6751 6.93263 12.9508H3.77867C4.28089 13.9572 4.92429 14.7665 5.70888 15.3787C6.49332 15.991 7.45055 16.432 8.58055 16.7019ZM11.433 16.6933C12.4712 16.4647 13.4075 16.0251 14.2418 15.3744C15.0762 14.7238 15.736 13.916 16.2212 12.9508H13.0758C12.8817 13.6785 12.6444 14.3619 12.3637 15.0012C12.083 15.6407 11.7728 16.2047 11.433 16.6933ZM3.40117 11.9039H6.73284C6.68048 11.547 6.64541 11.2123 6.62763 10.8998C6.60985 10.5873 6.60096 10.2798 6.60096 9.97748C6.60096 9.65234 6.61124 9.34012 6.6318 9.04082C6.65249 8.74151 6.68902 8.42373 6.74138 8.08748H3.40117C3.30603 8.39707 3.23707 8.70318 3.19429 9.00582C3.15166 9.30859 3.13034 9.63248 3.13034 9.97748C3.13034 10.3262 3.15166 10.6562 3.19429 10.9675C3.23707 11.2787 3.30603 11.5909 3.40117 11.9039ZM7.797 11.9039H12.2114C12.2694 11.5207 12.3088 11.1821 12.3295 10.8881C12.3502 10.5941 12.3605 10.2905 12.3605 9.97748C12.3605 9.67373 12.3502 9.37859 12.3295 9.09207C12.3088 8.80554 12.2694 8.47068 12.2114 8.08748H7.797C7.73895 8.47068 7.69957 8.80554 7.67888 9.09207C7.65819 9.37859 7.64784 9.67373 7.64784 9.97748C7.64784 10.2905 7.65819 10.5941 7.67888 10.8881C7.69957 11.1821 7.73895 11.5207 7.797 11.9039ZM13.2585 11.9039H16.5987C16.6938 11.5909 16.7628 11.2787 16.8056 10.9675C16.8482 10.6562 16.8695 10.3262 16.8695 9.97748C16.8695 9.63248 16.8482 9.30859 16.8056 9.00582C16.7628 8.70318 16.6938 8.39707 16.5987 8.08748H13.2724C13.3212 8.49707 13.3559 8.84776 13.3766 9.13957C13.3971 9.43151 13.4074 9.71082 13.4074 9.97748C13.4074 10.2855 13.3957 10.5892 13.3722 10.8885C13.3487 11.188 13.3108 11.5264 13.2585 11.9039ZM13.0672 7.04061H16.2212C15.7456 6.03838 15.0974 5.21644 14.2764 4.57477C13.4553 3.93297 12.5029 3.5047 11.4193 3.28998C11.7857 3.80137 12.1074 4.37081 12.3845 4.99831C12.6616 5.62581 12.8892 6.30658 13.0672 7.04061ZM8.01326 7.04061H12.0091C11.8213 6.28561 11.5573 5.57845 11.217 4.91915C10.8767 4.2597 10.471 3.66186 9.99992 3.12561C9.54937 3.58852 9.16714 4.1304 8.85325 4.75123C8.53937 5.3722 8.25937 6.13533 8.01326 7.04061ZM3.77867 7.04061H6.94117C7.10784 6.32366 7.32742 5.6538 7.59992 5.03102C7.87228 4.40811 8.19457 3.83061 8.5668 3.29852C7.48124 3.51686 6.53353 3.94359 5.72367 4.57873C4.91395 5.21387 4.26561 6.0345 3.77867 7.04061Z" fill="black"/>
</svg>
