<svg id="main_drip_logo" xmlns="http://www.w3.org/2000/svg" xmlns:xlink="http://www.w3.org/1999/xlink" width="175.027" height="174.724" viewBox="0 0 175.027 174.724">
  <defs>
    <clipPath id="clip-path">
      <rect id="사각형_9" data-name="사각형 9" width="175.027" height="174.724" fill="#fff"/>
    </clipPath>
  </defs>
  <g id="그룹_1" data-name="그룹 1" clip-path="url(#clip-path)">
    <path id="패스_27" data-name="패스 27" d="M143.48,132.458a31.905,31.905,0,0,0-11.375-11.538,30.88,30.88,0,0,0-31.38.039,32.308,32.308,0,0,0-11.493,11.576,30.542,30.542,0,0,0-4.264,15.646,31.337,31.337,0,0,0,4.223,15.8,32.713,32.713,0,0,0,11.45,11.772,29.705,29.705,0,0,0,15.694,4.429,30.26,30.26,0,0,0,15.733-4.3,32.162,32.162,0,0,0,15.634-27.7,30.934,30.934,0,0,0-4.223-15.723m-3.2,30.132A28.662,28.662,0,0,1,130.139,173a26.724,26.724,0,0,1-27.606,0A28.652,28.652,0,0,1,92.4,162.59a28.259,28.259,0,0,1-3.766-14.25A27.88,27.88,0,0,1,92.4,134.212a28.735,28.735,0,0,1,10.136-10.369,26.865,26.865,0,0,1,27.684,0,28.41,28.41,0,0,1,10.1,10.366,28.756,28.756,0,0,1-.038,28.381" transform="translate(-3.976 -5.459)" fill="#fff"/>
    <path id="패스_28" data-name="패스 28" d="M45.668,149.325l.007-.741-.007-.913a29.941,29.941,0,0,0-29.782-29.355H.093v60.365H15.886a29.941,29.941,0,0,0,29.782-29.357m-.52-.907h0ZM3.606,121.829h12.28a26.413,26.413,0,0,1,26.271,25.894l0,.772,0,.777a26.414,26.414,0,0,1-26.271,25.9H3.606Z" transform="translate(-0.004 -5.537)" fill="#fff"/>
    <path id="패스_29" data-name="패스 29" d="M76.4,147.035a19.545,19.545,0,0,0,2.558-9.83c0-6.178-1.742-11.012-5.178-14.372s-8.362-5.052-14.643-5.052H55.207v60.362h3.582V156.633h.977c.4,0,.78-.051,1.171-.073l17.057,21.567h4.527L64.938,155.951a18.488,18.488,0,0,0,4.5-1.883,18.929,18.929,0,0,0,6.956-7.034m-16.708,6.25h-.9V121.126h.5c5.151,0,9.163,1.412,11.921,4.193s4.159,6.811,4.159,11.966a16.145,16.145,0,0,1-2.067,8.083,15.638,15.638,0,0,1-5.665,5.777,15.321,15.321,0,0,1-7.952,2.139" transform="translate(-2.584 -5.512)" fill="#fff"/>
    <path id="패스_30" data-name="패스 30" d="M2.662,15.06H15.015v7.85h2.662V.567H15.015V12.508H2.662V.567H0V22.91H2.662Z" transform="translate(0 -0.027)" fill="#fff"/>
    <path id="패스_31" data-name="패스 31" d="M27.312,21.794a10.993,10.993,0,0,0,5.811,1.639A11.2,11.2,0,0,0,38.94,21.84a11.858,11.858,0,0,0,5.766-10.21,11.411,11.411,0,0,0-1.56-5.807A11.762,11.762,0,0,0,38.952,1.57a11.46,11.46,0,0,0-11.6.014,11.92,11.92,0,0,0-4.235,4.264,11.321,11.321,0,0,0-1.574,5.782A11.569,11.569,0,0,0,23.1,17.461a12.092,12.092,0,0,0,4.216,4.333m-1.9-14.666a9.289,9.289,0,0,1,3.276-3.351,8.635,8.635,0,0,1,8.891,0A9.2,9.2,0,0,1,40.84,7.124a9.286,9.286,0,0,1-.012,9.16,9.259,9.259,0,0,1-3.274,3.364,8.621,8.621,0,0,1-8.863,0,9.237,9.237,0,0,1-3.274-3.364,9.116,9.116,0,0,1-1.216-4.6,8.991,8.991,0,0,1,1.214-4.557" transform="translate(-1.008 0)" fill="#fff"/>
    <path id="패스_32" data-name="패스 32" d="M52.563,22.91V3.12h4.695V.567H45.152V3.12H49.9V22.91Z" transform="translate(-2.113 -0.027)" fill="#fff"/>
    <path id="패스_33" data-name="패스 33" d="M69.239,20.358h-6.48V15.116h5.408V12.562H62.759V3.121h6.48V.567H60.1V22.91h9.141Z" transform="translate(-2.812 -0.027)" fill="#fff"/>
    <path id="패스_34" data-name="패스 34" d="M81.1,20.358H74.737V.567H72.075V22.91H81.1Z" transform="translate(-3.373 -0.027)" fill="#fff"/>
    <path id="패스_35" data-name="패스 35" d="M153.74,78.735A20.205,20.205,0,1,0,133.535,58.53,20.228,20.228,0,0,0,153.74,78.735m0-37.337A17.132,17.132,0,1,1,136.608,58.53,17.152,17.152,0,0,1,153.74,41.4" transform="translate(-6.249 -1.794)" fill="#fff"/>
    <rect id="사각형_8" data-name="사각형 8" width="3.661" height="60.362" transform="translate(83.919 37.509)" fill="#fff"/>
    <path id="패스_36" data-name="패스 36" d="M106.035,78.123h.107a20.292,20.292,0,0,0,9.981-2.477,18.2,18.2,0,0,0,7.083-7.082,21.016,21.016,0,0,0,2.6-10.5c0-5.661-1.811-10.248-5.382-13.628s-8.584-5.088-14.914-5.088h-3.135V99.712h3.661Zm0-35.428h.107c5.105,0,9.093,1.348,11.85,4s4.151,6.528,4.151,11.524c0,5.258-1.491,9.376-4.429,12.235A15.747,15.747,0,0,1,106.3,74.776h-.264Z" transform="translate(-4.791 -1.841)" fill="#fff"/>
    <path id="패스_37" data-name="패스 37" d="M177.085,123.4c-3.564-3.375-8.581-5.087-14.912-5.087h-3.137v60.362H162.7V157.09h.107a20.307,20.307,0,0,0,9.98-2.478,18.22,18.22,0,0,0,7.083-7.083,21,21,0,0,0,2.6-10.5c0-5.662-1.812-10.246-5.385-13.628m-2.705,26.022a15.754,15.754,0,0,1-11.416,4.317H162.7V121.661h.107c5.1,0,9.091,1.348,11.849,4s4.152,6.529,4.152,11.525c0,5.259-1.492,9.375-4.429,12.235" transform="translate(-7.443 -5.537)" fill="#fff"/>
    <path id="패스_38" data-name="패스 38" d="M15.885,39.366H.093V99.731H15.885A29.941,29.941,0,0,0,45.668,70.375l.007-.741-.007-.913A29.941,29.941,0,0,0,15.885,39.366m29.262,30.1h0Zm-2.985.077,0,.777a26.414,26.414,0,0,1-26.272,25.9H3.606V42.879H15.885A26.414,26.414,0,0,1,42.157,68.772Z" transform="translate(-0.004 -1.842)" fill="#fff"/>
    <path id="패스_39" data-name="패스 39" d="M145.531,64.571a6.69,6.69,0,0,0,5.747,5.24,8.575,8.575,0,0,0,1.235.089,8.471,8.471,0,0,0,4.238-1.121,8.838,8.838,0,0,0,2.267-1.953l1.928,2.586.1.142h3.358l-3.793-5.107c.2-.363.394-.72.547-1.031a20.467,20.467,0,0,0,1.791-5.614l.17-.933h-2.758l-.12.648a17.387,17.387,0,0,1-1.45,4.478l-7.766-10.459h8.3V48.793H145.572l5.2,6.979a6.572,6.572,0,0,0-3.823,2.136,7.45,7.45,0,0,0-1.422,6.663m3.5-4.86a4.435,4.435,0,0,1,3.686-1.343l4.6,6.176a6.609,6.609,0,0,1-1.959,1.873,5.919,5.919,0,0,1-3.684.688,4.27,4.27,0,0,1-2.416-1.17,4.163,4.163,0,0,1-1.055-2,4.714,4.714,0,0,1,.824-4.229" transform="translate(-6.8 -2.283)" fill="#fff"/>
    <path id="패스_40" data-name="패스 40" d="M55.206,99.177h3.583V77.668h.978c.4,0,.781-.051,1.171-.073L78,99.16h4.526L64.939,76.986a18.56,18.56,0,0,0,4.5-1.884A18.9,18.9,0,0,0,76.4,68.071a19.536,19.536,0,0,0,2.559-9.83c0-6.18-1.742-11.014-5.178-14.372s-8.362-5.054-14.643-5.054H55.206ZM58.789,42.16h.5c5.152,0,9.164,1.412,11.922,4.193s4.159,6.813,4.159,11.967A16.155,16.155,0,0,1,73.305,66.4a15.645,15.645,0,0,1-5.665,5.777,15.315,15.315,0,0,1-7.953,2.141h-.9Z" transform="translate(-2.584 -1.816)" fill="#fff"/>
  </g>
</svg>
