<svg xmlns="http://www.w3.org/2000/svg" width="255.368" height="17.707" viewBox="0 0 255.368 17.707">
  <g id="main_thewaterhouse_logo" transform="translate(-153.46 -410.99)">
    <path id="패스_81" data-name="패스 81" d="M153.46,411.45v2.867h4.991v14.035h3.433V414.317h4.982V411.45Z" transform="translate(0 -0.053)" fill="#fff"/>
    <path id="패스_82" data-name="패스 82" d="M185.4,411.45v6.885h-6.973V411.45H175v16.9h3.425v-7.185H185.4v7.185h3.425v-16.9Z" transform="translate(-2.479 -0.053)" fill="#fff"/>
    <path id="패스_83" data-name="패스 83" d="M198.93,411.45v16.9h11.292v-2.779h-7.867v-4.5h7.309v-2.752h-7.309v-4.088h7.708V411.45Z" transform="translate(-5.233 -0.053)" fill="#fff"/>
    <path id="패스_84" data-name="패스 84" d="M245.4,411.45l-2.531,12.168-2.885-12.008-.035-.159h-3.363l-2.929,12.168-2.522-12.168h-3.5l3.991,16.743.035.159h3.823l2.779-12.114,2.77,12.114h3.823l4.026-16.9Z" transform="translate(-8.537 -0.053)" fill="#fff"/>
    <path id="패스_85" data-name="패스 85" d="M261.483,411.45,255.2,428.361h3.5l1.487-4.336h6.141l1.487,4.336h3.5L265.04,411.45h-3.549Zm1.77,3.61c.1.363.2.681.3.965l1.823,5.283h-4.265l1.823-5.283c.1-.292.2-.6.3-.965" transform="translate(-11.709 -0.053)" fill="#fff"/>
    <path id="패스_86" data-name="패스 86" d="M275.85,414.317h4.982v14.035h3.433V414.317h4.982V411.45h-13.4Z" transform="translate(-14.085 -0.053)" fill="#fff"/>
    <path id="패스_87" data-name="패스 87" d="M300.813,421.069h7.3v-2.752h-7.3v-4.088h7.7V411.45H297.38v16.9h11.292v-2.779h-7.858Z" transform="translate(-16.563 -0.053)" fill="#fff"/>
    <path id="패스_88" data-name="패스 88" d="M330.348,416.609c0-1.929-.77-5.159-5.929-5.159H317.57v16.911h3.425v-6.61h2.557l3.619,6.61h3.8l-3.973-7.1a4.65,4.65,0,0,0,3.354-4.655m-9.354-2.451h2.911c1.929,0,2.867.805,2.867,2.451s-.965,2.478-2.867,2.478h-2.911Z" transform="translate(-18.887 -0.053)" fill="#fff"/>
    <path id="패스_89" data-name="패스 89" d="M349.878,418.335h-6.964V411.45H339.48v16.9h3.433v-7.185h6.964v7.185H353.3v-16.9h-3.425Z" transform="translate(-21.408 -0.053)" fill="#fff"/>
    <path id="패스_90" data-name="패스 90" d="M369.377,411c-4.947,0-8.017,3.389-8.017,8.849s3.141,8.849,8.017,8.849,8.017-3.478,8.017-8.849S374.324,411,369.377,411m0,14.849c-2.8,0-4.469-2.248-4.469-6s1.672-6,4.469-6,4.469,2.248,4.469,6-1.673,6-4.469,6" transform="translate(-23.927 -0.001)" fill="#fff"/>
    <path id="패스_91" data-name="패스 91" d="M395.737,422.218c0,2.265-1.248,3.566-3.425,3.566s-3.4-1.3-3.4-3.566V411.44H385.49v10.938c0,3.929,2.619,6.363,6.832,6.363s6.849-2.442,6.849-6.363V411.44h-3.425v10.778Z" transform="translate(-26.704 -0.052)" fill="#fff"/>
    <path id="패스_92" data-name="패스 92" d="M413.905,413.707a3.678,3.678,0,0,1,3.876,2.832l.071.257,2.779-1.46-.044-.168c-.7-2.655-3.08-4.177-6.548-4.177-3.8,0-6.247,1.947-6.247,4.947,0,2.672,1.513,4.336,4.487,4.947l2.3.487c1.956.4,2.611.982,2.611,2.318,0,2.018-2.336,2.168-3.053,2.168a4.135,4.135,0,0,1-4.248-3.186l-.071-.239-2.947,1.283.044.177c.752,2.991,3.416,4.779,7.124,4.779,3.982,0,6.548-2.071,6.548-5.274,0-2.708-1.5-4.283-4.7-4.973l-2.389-.513c-1.717-.372-2.38-1-2.38-2.221s1.062-2.009,2.779-2.009" transform="translate(-29.164)" fill="#fff"/>
    <path id="패스_93" data-name="패스 93" d="M432.7,425.573v-4.5h7.309v-2.752H432.7v-4.088h7.7V411.45H429.27v16.9h11.3v-2.779Z" transform="translate(-31.742 -0.053)" fill="#fff"/>
  </g>
</svg>
